<svg width="100" height="100" viewBox="0 0 100 100" fill="none" xmlns="http://www.w3.org/2000/svg">
<g filter="url(#filter0_d_422_22405)">
<circle cx="50" cy="50" r="30" fill="white"/>
</g>
<path fill-rule="evenodd" clip-rule="evenodd" d="M52.6212 38.5C52.6212 37.1193 51.5019 36 50.1212 36C48.7405 36 47.6212 37.1193 47.6212 38.5V47.6212H38.5C37.1193 47.6212 36 48.7405 36 50.1212C36 51.5019 37.1193 52.6212 38.5 52.6212H47.6212V61.7424C47.6212 63.1231 48.7405 64.2424 50.1212 64.2424C51.5019 64.2424 52.6212 63.1231 52.6212 61.7424V52.6212H61.7424C63.1231 52.6212 64.2424 51.5019 64.2424 50.1212C64.2424 48.7405 63.1231 47.6212 61.7424 47.6212H52.6212V38.5Z" fill="#111111"/>
<defs>
<filter id="filter0_d_422_22405" x="0" y="0" width="100" height="100" filterUnits="userSpaceOnUse" color-interpolation-filters="sRGB">
<feFlood flood-opacity="0" result="BackgroundImageFix"/>
<feColorMatrix in="SourceAlpha" type="matrix" values="0 0 0 0 0 0 0 0 0 0 0 0 0 0 0 0 0 0 127 0" result="hardAlpha"/>
<feOffset/>
<feGaussianBlur stdDeviation="10"/>
<feComposite in2="hardAlpha" operator="out"/>
<feColorMatrix type="matrix" values="0 0 0 0 0 0 0 0 0 0 0 0 0 0 0 0 0 0 0.07 0"/>
<feBlend mode="normal" in2="BackgroundImageFix" result="effect1_dropShadow_422_22405"/>
<feBlend mode="normal" in="SourceGraphic" in2="effect1_dropShadow_422_22405" result="shape"/>
</filter>
</defs>
</svg>
